<svg width="190" height="41" viewBox="0 0 190 41" fill="none" xmlns="http://www.w3.org/2000/svg">
<g clip-path="url(#clip0_94552_2052)">
<path d="M6.0117 22.3305V19.8948C12.6311 18.9058 19.3065 18.4268 25.988 18.4615C25.988 19.1081 25.988 19.7655 25.9286 20.4229C27.8277 19.5058 29.8236 18.847 31.8709 18.4615C30.5661 14.7885 28.1884 11.6839 25.1037 9.62504C22.0189 7.5662 18.398 6.66726 14.7979 7.06648C11.1978 7.46571 7.81798 9.14099 5.1783 11.8346C2.53863 14.5283 0.785349 18.091 0.188171 21.9749L6.0117 22.3305Z" fill="#FDC305"/>
<path d="M26.9784 26.1133C25.8295 27.4928 25.6017 27.4066 25.6017 29.8315C25.6017 30.8122 25.6017 35.1124 25.6017 39.725C27.8723 38.0933 29.7362 35.8753 31.0271 33.2688C32.3181 30.6624 32.9959 27.7486 33 24.7877C32.9869 23.666 32.8809 22.5478 32.6831 21.4468C30.6312 22.7718 28.7183 24.3366 26.9784 26.1133Z" fill="#FDC305"/>
<path d="M6.29892 27.7191C6.29892 27.7191 2.54532 26.1672 1.15876 25.7469C0.779508 25.6168 0.392293 25.516 0 25.4451C0.107354 28.5554 0.956315 31.5818 2.4635 34.2271C3.97068 36.8724 6.08426 39.0456 8.59664 40.5333L6.29892 27.7191Z" fill="#FDC305"/>
<path d="M26.0375 18.4507C26.0778 12.5002 25.6137 6.5583 24.651 0.700541C24.651 0.700541 24.5123 -0.689727 23.7695 0.441887C23.1861 1.78704 22.7857 3.21746 22.581 4.68813C18.3638 4.39259 14.1305 4.51524 9.93368 5.05456C9.15127 2.15547 7.77462 0.808314 7.11105 1.07775C6.44749 1.34718 6.39797 4.64502 6.39797 4.64502L6.07114 19.841C12.6882 18.8667 19.3603 18.4022 26.0375 18.4507V18.4507Z" fill="#F06351"/>
<path d="M12.2908 15.0882C12.2908 14.9912 13.2812 15.821 13.6873 16.0797C14.0933 16.3383 14.2914 16.5323 14.2914 16.7156C14.2914 16.8988 14.024 17.082 13.6675 17.082C13.3109 17.082 12.7662 16.9527 12.6771 16.791H13.608H13.8953C13.2918 16.3053 12.7521 15.7325 12.2908 15.0882V15.0882Z" fill="black"/>
<path d="M19.699 15.2067L18.6194 16.6401C18.6194 16.7048 18.4511 17.0173 18.7977 16.9634C19.2079 16.8969 19.6122 16.7923 20.006 16.6509C20.1149 16.6509 20.0753 16.4461 19.8971 16.4677C19.7188 16.4892 19.2137 16.5216 18.9067 16.5862L19.7386 15.2283C19.7386 15.2283 19.8079 15.0882 19.699 15.2067Z" fill="black"/>
<path d="M16.5891 21.7701C17.0482 21.55 17.4277 21.1712 17.6687 20.6924C17.946 19.9918 17.6687 19.7116 17.2329 19.6146C16.6366 19.4963 16.0211 19.6271 15.5096 19.9811C15.1234 20.369 15.1729 20.757 15.4601 21.0588C15.808 21.3457 16.1873 21.5846 16.5891 21.7701V21.7701Z" fill="black"/>
<path d="M16.193 23.1173C16.082 23.3635 15.9271 23.5833 15.7374 23.7639C15.4553 24.0108 15.1086 24.1542 14.747 24.1734C14.2259 24.2187 13.7077 24.0537 13.2911 23.71C13.0953 23.5815 12.9183 23.4217 12.7662 23.2358C12.6667 23.1163 12.5452 23.0208 12.4097 22.9556C12.4097 22.9556 13.1525 27.3743 14.955 28.0748C16.7575 28.7753 17.0744 27.2665 17.1339 26.857C17.1934 25.6339 16.9102 24.42 16.3217 23.3759C16.3019 23.0418 16.292 23.2574 16.193 23.1173Z" fill="#F06351"/>
<path d="M14.5687 24.3459C14.1085 24.2755 13.6664 24.1035 13.2695 23.8403C12.8727 23.5771 12.5295 23.2284 12.2611 22.8155C12.2479 22.8014 12.2375 22.7847 12.2303 22.7662C12.2232 22.7477 12.2195 22.7278 12.2195 22.7077C12.2195 22.6876 12.2232 22.6678 12.2303 22.6493C12.2375 22.6308 12.2479 22.614 12.2611 22.5999C12.274 22.5856 12.2894 22.5742 12.3064 22.5664C12.3234 22.5587 12.3417 22.5547 12.3601 22.5547C12.3786 22.5547 12.3968 22.5587 12.4139 22.5664C12.4309 22.5742 12.4463 22.5856 12.4592 22.5999C12.9591 23.3481 13.71 23.8516 14.5489 24.001V24.001C14.8774 23.9741 15.1952 23.8623 15.476 23.6748C15.7568 23.4874 15.9924 23.2297 16.1633 22.9233L16.3019 22.7185L16.401 22.9448C16.401 22.9448 16.7674 23.7639 17.3914 23.807C18.0153 23.8501 18.4313 23.3651 18.9859 22.4275C18.9988 22.4132 19.0142 22.4018 19.0312 22.394C19.0482 22.3862 19.0665 22.3822 19.0849 22.3822C19.1034 22.3822 19.1216 22.3862 19.1386 22.394C19.1556 22.4018 19.1711 22.4132 19.184 22.4275C19.216 22.4497 19.2389 22.4845 19.2481 22.5246C19.2574 22.5646 19.2521 22.607 19.2335 22.6431C18.5996 23.7208 17.9757 24.195 17.3715 24.1519C17.1418 24.1155 16.9226 24.0229 16.7304 23.8811C16.5383 23.7392 16.3782 23.5517 16.2623 23.3328C16.0675 23.6286 15.8142 23.8732 15.5212 24.0485C15.2281 24.2238 14.9026 24.3254 14.5687 24.3459V24.3459Z" fill="black"/>
<path d="M25.988 20.3906C24.2097 22.1405 22.5327 24.0085 20.9667 25.984C19.4104 27.9521 17.6526 29.7203 15.7275 31.2541C15.5096 30.6829 14.123 29.6267 14.123 29.6267C14.123 29.6267 11.0231 27.3204 8.9928 25.5098C7.89756 24.5047 6.86216 23.4248 5.89286 22.2766L3.91206 22.1581C6.77448 26.6905 10.9639 30.0336 15.7968 31.6421C16.6486 31.4912 19.0354 29.6375 20.8181 28.1287C22.9167 26.1692 24.8827 24.0478 26.7011 21.7809C27.1988 21.1461 27.5818 20.4148 27.8301 19.6254C26.7407 20.0457 25.988 20.3906 25.988 20.3906Z" fill="#F06351"/>
</g>
<g clip-path="url(#clip1_94552_2052)">
<path d="M90.2645 31.9151C89.3696 30.4535 88.9253 28.7011 89 26.9272V19.5344C88.8916 17.7415 89.3081 15.958 90.1855 14.4575C91.0548 13.2996 92.3983 12.7651 94.374 12.7651C96.3498 12.7651 97.6143 13.2996 98.4045 14.2793C99.2626 15.5203 99.6846 17.0741 99.59 18.6437V20.4251H95.7175V18.3765C95.7488 17.7706 95.6681 17.164 95.4804 16.5951C95.3802 16.3655 95.2212 16.1749 95.024 16.048C94.8269 15.921 94.6005 15.8634 94.374 15.8826C93.8208 15.8826 93.4257 16.0607 93.2676 16.5061C93.0888 17.1389 93.0086 17.8019 93.0305 18.4656V27.996C92.9888 28.64 93.0978 29.285 93.3466 29.8665C93.5047 30.3119 93.8999 30.49 94.4531 30.49C95.0063 30.49 95.3224 30.3119 95.4804 29.8665C95.6601 29.2646 95.7405 28.6306 95.7175 27.996V25.8584H99.59V27.6398C99.6704 29.235 99.2508 30.8113 98.4045 32.0932C97.6143 33.1621 96.2707 33.6965 94.374 33.6965C92.4773 33.6074 91.0548 33.073 90.2645 31.9151Z" fill="#111111"/>
<path d="M104.253 13.0334H108.757L112.077 33.3413H108.441L107.809 29.066H105.201L104.569 33.3413H100.854L104.253 13.0334ZM107.493 26.3939L106.545 18.4667L105.596 26.3939H107.493Z" fill="#111111"/>
<path d="M114.843 16.4181H112.156V13.0334H121.56V16.329H118.873V33.3413H114.843V16.4181Z" fill="#111111"/>
<path d="M128.752 13.0334H135.707V15.1711H131.202V21.8513H134.837V23.8999H131.202V31.3818H135.707V33.4304H128.673V13.0334H128.752Z" fill="#111111"/>
<path d="M137.761 13.0334H139.5L144.637 26.4829V13.0334H146.692V33.3413H145.111L139.895 19.4464V33.3413H137.761V13.0334Z" fill="#111111"/>
<path d="M149.063 13.0334H156.017V15.1711H151.513V21.8513H155.148V23.8999H151.513V31.3818H156.017V33.4304H149.063V13.0334Z" fill="#111111"/>
<path d="M158.072 13.0336H161.707C163.137 12.9223 164.559 13.362 165.738 14.2806C166.607 15.0822 167.002 16.5074 167.002 18.3778C167.002 20.9608 166.291 22.5641 164.79 23.0985L167.318 33.2524H164.869L162.498 23.722H160.522V33.2524H157.993V13.0336H158.072ZM161.549 21.7625C162.364 21.8381 163.176 21.5856 163.841 21.0499C164.315 20.6046 164.552 19.7139 164.552 18.3778C164.574 17.7141 164.494 17.0511 164.315 16.4183C164.137 15.9642 163.832 15.5886 163.446 15.3494C162.902 15.0699 162.304 14.9475 161.707 14.9932H160.601V21.6734H161.549V21.7625Z" fill="#111111"/>
<path d="M170.164 31.8273C169.342 30.27 168.956 28.4695 169.057 26.6613V19.892C169.038 18.6012 169.171 17.3133 169.452 16.062C169.717 15.127 170.244 14.3142 170.954 13.7462C171.836 13.1575 172.854 12.8784 173.878 12.9446C175.538 12.9446 176.723 13.3899 177.434 14.3697C178.252 15.6634 178.644 17.2387 178.541 18.8232V19.5357H176.17V18.9122C176.173 18.1663 176.12 17.4213 176.012 16.6855C175.945 16.2205 175.718 15.8042 175.379 15.5276C174.935 15.199 174.408 15.0426 173.878 15.0822C173.311 15.0413 172.75 15.231 172.297 15.6167C172.111 15.7932 171.959 16.0107 171.851 16.2557C171.742 16.5008 171.679 16.7682 171.665 17.0418C171.561 17.838 171.508 18.6418 171.507 19.4467V27.0176C171.449 28.171 171.61 29.3251 171.981 30.4022C172.297 31.1148 172.93 31.382 173.878 31.382C174.252 31.4346 174.632 31.3612 174.97 31.171C175.307 30.9808 175.587 30.6823 175.775 30.3131C176.192 29.1868 176.381 27.9696 176.328 26.7504V25.3252H174.036V23.2766H178.62V33.3415H177.039L176.802 31.0257C176.595 31.8018 176.163 32.4776 175.576 32.9456C174.989 33.4137 174.28 33.6471 173.562 33.6087C172.909 33.652 172.256 33.5119 171.663 33.201C171.07 32.8901 170.555 32.4181 170.164 31.8273V31.8273Z" fill="#111111"/>
<path d="M183.678 26.2172L179.805 13.124H182.176L184.942 22.9217L187.629 13.124H190L186.128 26.2172V33.3428H183.757V26.2172H183.678Z" fill="#111111"/>
</g>
<defs>
<clipPath id="clip0_94552_2052">
<rect width="33" height="40.5333" fill="white"/>
</clipPath>
<clipPath id="clip1_94552_2052">
<rect width="101" height="20.8423" fill="white" transform="translate(89 12.7651)"/>
</clipPath>
</defs>
</svg>
